<svg xmlns="http://www.w3.org/2000/svg" width="24" height="24" fill="none" stroke="currentColor" stroke-linecap="round" stroke-linejoin="round" stroke-width="2" viewBox="0 0 24 24"><path d="m5.931 6.936 1.275 4.249m5.607 5.609 4.251 1.275"/><path d="m11.683 12.317 5.759-5.759"/><path d="M4 5.5a1.5 1.5 0 1 0 3 0 1.5 1.5 0 1 0-3 0"/><path d="M17 5.5a1.5 1.5 0 1 0 3 0 1.5 1.5 0 1 0-3 0"/><path d="M17 18.5a1.5 1.5 0 1 0 3 0 1.5 1.5 0 1 0-3 0"/><path d="M4 15.5a4.5 4.5 0 1 0 9 0 4.5 4.5 0 1 0-9 0"/></svg>