<svg xmlns="http://www.w3.org/2000/svg" width="220" height="47" fill="none" viewBox="0 0 220 47"><path fill="currentColor" d="M195.587 46.18q-5.166 0-9.513-1.701t-7.561-4.725a21.85 21.85 0 0 1-4.977-7.182q-1.764-4.158-1.764-9.072t1.764-9.009q1.764-4.158 4.977-7.182 3.214-3.087 7.561-4.788 4.347-1.7 9.45-1.7 5.166 0 9.45 1.7 4.347 1.701 7.56 4.788 3.213 3.024 4.977 7.182 1.764 4.095 1.764 9.009t-1.764 9.072-4.977 7.182-7.56 4.725q-4.284 1.7-9.387 1.7m-.063-7.182q3.339 0 6.174-1.134t4.914-3.213a15.3 15.3 0 0 0 3.213-4.914q1.197-2.835 1.197-6.237t-1.197-6.174q-1.134-2.835-3.213-4.914a14 14 0 0 0-4.914-3.276q-2.835-1.134-6.174-1.134t-6.174 1.134a14.8 14.8 0 0 0-4.914 3.276q-2.079 2.079-3.276 4.914-1.134 2.772-1.134 6.174 0 3.339 1.134 6.174a16 16 0 0 0 3.276 4.977q2.079 2.079 4.914 3.213t6.174 1.134"/><path fill="currentColor" d="M151.492 46.18q-5.166 0-9.891-1.45-4.725-1.51-7.497-3.842l2.835-6.363q2.646 2.078 6.552 3.465a23.8 23.8 0 0 0 8.001 1.386q3.465 0 5.607-.756t3.15-2.016a4.76 4.76 0 0 0 1.008-2.961q0-2.016-1.449-3.213-1.449-1.26-3.78-1.953-2.268-.756-5.103-1.386a100 100 0 0 1-5.607-1.449 26.7 26.7 0 0 1-5.103-2.205 11.44 11.44 0 0 1-3.717-3.654q-1.449-2.268-1.449-5.796 0-3.591 1.89-6.552 1.953-3.024 5.859-4.788Q146.767.82 152.815.82q3.969 0 7.875 1.008t6.804 2.898l-2.583 6.363q-2.961-1.764-6.111-2.583-3.15-.882-6.048-.882-3.402 0-5.544.819-2.079.819-3.087 2.142-.945 1.323-.945 3.024 0 2.016 1.386 3.276 1.449 1.197 3.717 1.89 2.331.693 5.166 1.386 2.835.63 5.607 1.449 2.835.819 5.103 2.142a10.16 10.16 0 0 1 3.717 3.591q1.449 2.268 1.449 5.733 0 3.528-1.953 6.552-1.89 2.961-5.859 4.788-3.969 1.764-10.017 1.764"/><path fill="currentColor" d="M115.595 46.18q-5.04 0-9.387-1.638-4.284-1.702-7.497-4.725-3.15-3.087-4.914-7.245T92.033 23.5t1.764-9.072 4.977-7.182q3.213-3.087 7.497-4.725 4.284-1.7 9.387-1.7 5.418 0 9.891 1.89 4.473 1.826 7.56 5.48l-5.292 4.977q-2.394-2.583-5.355-3.843-2.961-1.323-6.426-1.323t-6.363 1.134a15.2 15.2 0 0 0-4.977 3.213q-2.079 2.079-3.276 4.914-1.134 2.835-1.134 6.237t1.134 6.237q1.197 2.835 3.276 4.914a15.2 15.2 0 0 0 4.977 3.213q2.898 1.134 6.363 1.134t6.426-1.26q2.961-1.323 5.355-3.969l5.292 5.04q-3.087 3.59-7.56 5.48t-9.954 1.89"/><path fill="currentColor" d="M65.333 46.18q-5.166 0-9.513-1.701t-7.56-4.725a21.85 21.85 0 0 1-4.977-7.182Q41.52 28.414 41.52 23.5t1.764-9.009q1.764-4.158 4.977-7.182 3.213-3.087 7.56-4.788 4.347-1.7 9.45-1.7 5.166 0 9.45 1.7 4.347 1.701 7.56 4.788 3.213 3.024 4.977 7.182 1.764 4.095 1.764 9.009t-1.764 9.072-4.977 7.182-7.56 4.725q-4.284 1.7-9.387 1.7m-.063-7.182q3.339 0 6.174-1.134t4.914-3.213a15.3 15.3 0 0 0 3.213-4.914q1.197-2.835 1.197-6.237t-1.197-6.174q-1.134-2.835-3.213-4.914a14 14 0 0 0-4.914-3.276Q68.61 8.002 65.27 8.002t-6.174 1.134a14.8 14.8 0 0 0-4.914 3.276q-2.079 2.079-3.276 4.914-1.134 2.772-1.134 6.174 0 3.339 1.134 6.174a16 16 0 0 0 3.276 4.977q2.079 2.079 4.914 3.213t6.174 1.134"/><path fill="currentColor" d="M24.535 46.18q-5.04 0-9.387-1.638-4.284-1.702-7.497-4.725-3.15-3.087-4.914-7.245T.973 23.5t1.764-9.072 4.977-7.182q3.212-3.087 7.497-4.725 4.284-1.7 9.387-1.7 5.418 0 9.89 1.89 4.474 1.826 7.56 5.48l-5.291 4.977q-2.394-2.583-5.355-3.843-2.961-1.323-6.426-1.323t-6.363 1.134a15.2 15.2 0 0 0-4.977 3.213q-2.079 2.079-3.276 4.914-1.134 2.835-1.134 6.237t1.134 6.237q1.197 2.835 3.276 4.914a15.2 15.2 0 0 0 4.977 3.213q2.898 1.134 6.363 1.134t6.426-1.26q2.961-1.323 5.355-3.969l5.292 5.04q-3.087 3.59-7.56 5.48t-9.954 1.89"/></svg>