<svg xmlns="http://www.w3.org/2000/svg" width="97" height="16" fill="none" viewBox="0 0 97 16"><path fill="currentColor" d="M94.112 15V1h2.6v14z"/><path fill="currentColor" d="M85.151 15.2q-2.88 0-4.52-1.62-1.62-1.62-1.62-4.68V1h2.6v7.8q0 2.16.92 3.14.94.98 2.64.98t2.62-.98.92-3.14V1h2.56v7.9q0 3.06-1.64 4.68-1.62 1.62-4.48 1.62"/><path fill="currentColor" d="M71.456 10.48V8.4h5.5v2.08z"/><path fill="currentColor" d="M62.663 15.2q-1.64 0-3.02-.54a7.4 7.4 0 0 1-2.4-1.5 6.9 6.9 0 0 1-1.58-2.28q-.56-1.32-.56-2.88t.56-2.86q.56-1.32 1.58-2.28a7.2 7.2 0 0 1 2.4-1.52q1.38-.54 3-.54 1.64 0 3 .54 1.38.54 2.4 1.52a6.7 6.7 0 0 1 1.58 2.28q.56 1.3.56 2.86t-.56 2.88a6.7 6.7 0 0 1-1.58 2.28 7.4 7.4 0 0 1-2.4 1.5q-1.36.54-2.98.54m-.02-2.28q1.06 0 1.96-.36t1.56-1.02q.66-.68 1.02-1.56.38-.9.38-1.98t-.38-1.96a4.6 4.6 0 0 0-1.02-1.56 4.45 4.45 0 0 0-1.56-1.04 5.2 5.2 0 0 0-1.96-.36q-1.06 0-1.96.36a4.7 4.7 0 0 0-1.56 1.04q-.66.66-1.04 1.56-.36.88-.36 1.96 0 1.06.36 1.96.38.9 1.04 1.58.66.66 1.56 1.02t1.96.36"/><path fill="currentColor" d="M48.664 15.2q-1.64 0-3.14-.46-1.5-.48-2.38-1.22l.9-2.02q.84.66 2.08 1.1t2.54.44q1.1 0 1.78-.24t1-.64q.32-.42.32-.94 0-.64-.46-1.02-.46-.4-1.2-.62-.72-.24-1.62-.44a32 32 0 0 1-1.78-.46 8.5 8.5 0 0 1-1.62-.7 3.6 3.6 0 0 1-1.18-1.16q-.46-.72-.46-1.84 0-1.14.6-2.08.62-.96 1.86-1.52 1.26-.58 3.18-.58 1.26 0 2.5.32t2.16.92l-.82 2.02a7.4 7.4 0 0 0-1.94-.82 7 7 0 0 0-1.92-.28q-1.08 0-1.76.26-.66.26-.98.68-.3.42-.3.96 0 .64.44 1.04.46.38 1.18.6.74.22 1.64.44.9.2 1.78.46.9.26 1.62.68.74.42 1.18 1.14.46.72.46 1.82a3.76 3.76 0 0 1-.62 2.08q-.6.94-1.86 1.52-1.26.56-3.18.56"/><path fill="currentColor" d="M37.268 15.2a8.4 8.4 0 0 1-2.98-.52q-1.36-.54-2.38-1.5a7 7 0 0 1-1.56-2.3q-.56-1.32-.56-2.88t.56-2.88 1.58-2.28a7 7 0 0 1 2.38-1.5q1.36-.54 2.98-.54 1.72 0 3.14.6a6.1 6.1 0 0 1 2.4 1.74l-1.68 1.58a5 5 0 0 0-1.7-1.22 4.9 4.9 0 0 0-2.04-.42q-1.1 0-2.02.36-.9.36-1.58 1.02-.66.66-1.04 1.56-.36.9-.36 1.98t.36 1.98q.38.9 1.04 1.56.68.66 1.58 1.02.92.36 2.02.36t2.04-.4q.94-.42 1.7-1.26l1.68 1.6a6.4 6.4 0 0 1-2.4 1.74q-1.42.6-3.16.6"/><path fill="currentColor" d="M21.312 15.2q-1.64 0-3.02-.54a7.4 7.4 0 0 1-2.4-1.5 6.9 6.9 0 0 1-1.58-2.28q-.56-1.32-.56-2.88t.56-2.86q.56-1.32 1.58-2.28a7.2 7.2 0 0 1 2.4-1.52q1.38-.54 3-.54 1.641 0 3 .54 1.38.54 2.4 1.52a6.7 6.7 0 0 1 1.58 2.28q.56 1.3.56 2.86t-.56 2.88a6.7 6.7 0 0 1-1.58 2.28 7.4 7.4 0 0 1-2.4 1.5q-1.36.54-2.98.54m-.02-2.28q1.06 0 1.96-.36t1.56-1.02q.66-.68 1.02-1.56.38-.9.38-1.98t-.38-1.96a4.6 4.6 0 0 0-1.02-1.56 4.45 4.45 0 0 0-1.56-1.04 5.2 5.2 0 0 0-1.96-.36q-1.06 0-1.96.36a4.7 4.7 0 0 0-1.56 1.04q-.66.66-1.04 1.56-.36.88-.36 1.96 0 1.06.36 1.96.38.9 1.04 1.58.66.66 1.56 1.02t1.96.36"/><path fill="currentColor" d="M8.36 15.2a8.4 8.4 0 0 1-2.98-.52q-1.36-.54-2.38-1.5a7 7 0 0 1-1.56-2.3Q.88 9.56.88 8t.56-2.88 1.58-2.28a7 7 0 0 1 2.38-1.5Q6.76.8 8.38.8q1.72 0 3.14.6a6.1 6.1 0 0 1 2.4 1.74l-1.68 1.58a5 5 0 0 0-1.7-1.22 4.9 4.9 0 0 0-2.04-.42q-1.1 0-2.02.36-.9.36-1.58 1.02-.66.66-1.04 1.56-.36.9-.36 1.98t.36 1.98q.38.9 1.04 1.56.68.66 1.58 1.02.92.36 2.02.36t2.04-.4a5.1 5.1 0 0 0 1.7-1.26l1.68 1.6a6.4 6.4 0 0 1-2.4 1.74q-1.42.6-3.16.6"/></svg>