<svg xmlns="http://www.w3.org/2000/svg" width="493" height="96" fill="none" viewBox="0 0 493 96"><path fill="currentColor" d="M453.302 85.453q-8.459 0-15.576-2.778t-12.378-7.715a35.7 35.7 0 0 1-8.15-11.728q-2.888-6.789-2.888-14.814t2.888-14.71q2.889-6.79 8.15-11.728 5.26-5.04 12.378-7.819 7.118-2.777 15.473-2.777 8.459 0 15.473 2.777 7.119 2.778 12.379 7.819 5.261 4.937 8.149 11.727 2.889 6.687 2.889 14.711T489.2 63.232q-2.888 6.79-8.149 11.728t-12.379 7.715q-7.014 2.778-15.37 2.778m-.103-11.728q5.468 0 10.109-1.851 4.642-1.852 8.046-5.247a25 25 0 0 0 5.261-8.024q1.96-4.629 1.96-10.185 0-5.555-1.96-10.081-1.856-4.63-5.261-8.024-3.404-3.498-8.046-5.35t-10.109-1.852-10.109 1.852a24.3 24.3 0 0 0-8.046 5.35q-3.404 3.395-5.364 8.024-1.857 4.526-1.857 10.081 0 5.453 1.857 10.082 1.96 4.629 5.364 8.127 3.405 3.395 8.046 5.247 4.643 1.851 10.109 1.851"/><path fill="currentColor" d="M381.104 85.453q-8.459 0-16.195-2.366-7.737-2.469-12.276-6.276l4.642-10.39q4.333 3.395 10.728 5.658a39 39 0 0 0 13.101 2.264q5.673 0 9.181-1.235 3.507-1.234 5.157-3.292 1.651-2.16 1.651-4.835 0-3.292-2.373-5.247-2.372-2.056-6.189-3.189-3.714-1.234-8.355-2.263a164 164 0 0 1-9.181-2.366q-4.539-1.44-8.356-3.6a18.7 18.7 0 0 1-6.086-5.967q-2.373-3.704-2.372-9.465 0-5.864 3.094-10.698 3.198-4.939 9.594-7.819 6.498-2.983 16.401-2.983 6.5 0 12.894 1.646 6.396 1.646 11.141 4.732l-4.229 10.39q-4.849-2.88-10.006-4.218-5.158-1.44-9.903-1.44-5.57 0-9.078 1.337-3.404 1.338-5.054 3.498-1.548 2.16-1.547 4.938 0 3.292 2.269 5.35 2.373 1.954 6.086 3.086 3.817 1.131 8.459 2.263 4.642 1.029 9.18 2.366 4.642 1.338 8.356 3.498 3.816 2.16 6.086 5.864 2.373 3.704 2.373 9.361 0 5.76-3.198 10.699-3.094 4.835-9.594 7.818-6.498 2.88-16.401 2.88"/><path fill="currentColor" d="M322.327 85.453q-8.253 0-15.37-2.675-7.015-2.778-12.276-7.715-5.157-5.04-8.046-11.83t-2.888-14.815q0-8.025 2.888-14.813 2.889-6.79 8.15-11.728 5.26-5.04 12.275-7.716 7.014-2.777 15.37-2.777 8.871 0 16.195 3.086 7.324 2.983 12.379 8.95l-8.665 8.127q-3.92-4.218-8.768-6.275-4.849-2.16-10.522-2.16t-10.419 1.851q-4.641 1.852-8.149 5.247-3.404 3.395-5.364 8.024-1.857 4.629-1.857 10.184 0 5.556 1.857 10.185 1.96 4.629 5.364 8.024 3.508 3.395 8.149 5.247 4.746 1.851 10.419 1.851 5.674 0 10.522-2.057 4.848-2.16 8.768-6.481l8.665 8.23q-5.055 5.863-12.379 8.95t-16.298 3.086"/><path fill="currentColor" d="M240.03 85.453q-8.458 0-15.576-2.778t-12.379-7.715a35.7 35.7 0 0 1-8.149-11.728q-2.889-6.789-2.888-14.814t2.888-14.71q2.888-6.79 8.149-11.728 5.261-5.04 12.379-7.819 7.117-2.777 15.473-2.777 8.459 0 15.473 2.777 7.117 2.778 12.379 7.819 5.26 4.937 8.149 11.727 2.888 6.687 2.888 14.711t-2.888 14.814q-2.889 6.79-8.149 11.728-5.262 4.938-12.379 7.715-7.014 2.778-15.37 2.778m-.103-11.728q5.467 0 10.109-1.851 4.642-1.852 8.046-5.247a25 25 0 0 0 5.261-8.024q1.96-4.629 1.96-10.185 0-5.555-1.96-10.081-1.857-4.63-5.261-8.024-3.404-3.498-8.046-5.35t-10.109-1.852-10.109 1.852a24.3 24.3 0 0 0-8.046 5.35q-3.405 3.395-5.364 8.024-1.857 4.526-1.857 10.081 0 5.453 1.857 10.082 1.959 4.629 5.364 8.127 3.404 3.395 8.046 5.247t10.109 1.851"/><path fill="currentColor" d="M173.228 85.453q-8.252 0-15.37-2.675-7.014-2.778-12.275-7.715-5.159-5.04-8.046-11.83-2.889-6.79-2.889-14.815t2.889-14.813q2.888-6.79 8.149-11.728 5.26-5.04 12.275-7.716 7.015-2.777 15.37-2.777 8.872 0 16.196 3.086 7.323 2.983 12.378 8.95l-8.665 8.127q-3.92-4.218-8.768-6.275-4.848-2.16-10.522-2.16-5.673 0-10.418 1.851-4.642 1.852-8.15 5.247-3.404 3.395-5.364 8.024-1.856 4.629-1.856 10.184 0 5.556 1.856 10.185 1.96 4.629 5.364 8.024 3.508 3.395 8.15 5.247 4.745 1.851 10.418 1.851 5.674 0 10.522-2.057 4.848-2.16 8.768-6.481l8.665 8.23q-5.055 5.863-12.378 8.95t-16.299 3.086"/><path fill="currentColor" fill-rule="evenodd" d="M48.25 95.933C21.601 95.933 0 74.457 0 47.966 0 21.476 21.602 0 48.25 0h23.01v29.518H48.25c-10.25 0-18.558 8.26-18.558 18.448 0 10.19 8.308 18.449 18.557 18.449H71.26v29.518z" clip-rule="evenodd"/><path fill="currentColor" d="M71.26 66.416V29.519h24.496c10.249 0 18.557 8.26 18.557 18.448 0 10.19-8.308 18.449-18.557 18.449z"/></svg>