<svg xmlns="http://www.w3.org/2000/svg" width="187" height="42" fill="none" viewBox="0 0 187 42"><path fill="#237FE6" d="M26.345 3.944V.243h16.276v3.701h-5.88v15.58h-4.516V3.943z"/><path fill="#237FE6" d="M23.421.243v19.28h-4.543V.243z"/><path fill="#237FE6" d="M.668 19.523V.243h7.991c4.33 0 6.574 1.97 6.574 4.9 0 2.21-1.496 3.728-3.607 4.154v.186c2.325.107 4.356 1.865 4.356 4.66 0 3.116-2.432 5.38-6.708 5.38zm7.537-3.675c2.084 0 3.02-.825 3.02-2.21 0-1.518-1.123-2.477-2.94-2.477H5.21v4.687zM7.91 8.205c1.55 0 2.672-.825 2.672-2.21 0-1.305-.989-2.13-2.619-2.13H5.211v4.34z"/><path fill="#237FE6" d="M179.084 35.71c-4.9 0-7.84-3.153-7.84-7.812s2.94-7.811 7.84-7.811c4.899 0 7.811 3.152 7.811 7.811 0 4.66-2.912 7.812-7.811 7.812m.028-3.906c1.484 0 2.38-1.534 2.38-3.934 0-2.427-.896-3.933-2.38-3.933-1.54 0-2.464 1.506-2.464 3.933 0 2.4.924 3.934 2.464 3.934"/><path fill="#237FE6" d="M169.202 20.283v3.822h-2.8V35.43h-5.292V24.105h-1.96v-3.822h1.96v-.53c0-3.683 2.1-5.469 5.404-5.469 1.176 0 2.044.084 2.94.28v3.822a21 21 0 0 0-1.316-.084c-1.064 0-1.736.418-1.736 1.45v.53z"/><path fill="#237FE6" d="M146.666 26.866v8.565h-5.291V20.282h5.011v2.846h.168c.672-1.898 2.408-3.041 4.648-3.041 3.22 0 5.32 2.343 5.292 5.69v9.654h-5.292v-8.565c.028-1.562-.812-2.483-2.24-2.483-1.4 0-2.296.92-2.296 2.483"/><path fill="#237FE6" d="M132.278 35.43V20.283h5.292v15.149zm2.632-16.794c-1.456 0-2.632-1.088-2.632-2.427 0-1.34 1.176-2.427 2.632-2.427s2.632 1.088 2.632 2.427c0 1.34-1.176 2.427-2.632 2.427"/><path fill="#237FE6" d="M120.549 41.429c-4.536 0-7.168-2.065-7.392-4.966h5.124c.168.976 1.12 1.395 2.408 1.395 1.484 0 2.548-.614 2.548-2.455v-2.595h-.14c-.588 1.507-2.184 2.427-4.284 2.427-3.276 0-6.02-2.176-6.02-7.393 0-5.44 2.912-7.755 5.964-7.755 2.296 0 3.696 1.31 4.284 2.817h.14v-2.622h5.292v15.149c0 3.85-3.164 5.998-7.924 5.998m.168-9.96c1.596 0 2.548-1.339 2.548-3.627s-.952-3.682-2.548-3.682c-1.568 0-2.464 1.395-2.464 3.682 0 2.316.896 3.627 2.464 3.627"/><path fill="#237FE6" d="M104.172 28.818v-8.537h5.291V35.43h-5.011v-2.873h-.168c-.672 1.924-2.408 3.068-4.676 3.068-3.164 0-5.264-2.343-5.264-5.69V20.28h5.292v8.565c0 1.534.812 2.483 2.24 2.483 1.372 0 2.324-.92 2.296-2.51"/><path fill="#237FE6" d="M81.413 35.43V20.283h5.124v2.846h.168c.56-2.093 1.82-3.041 3.472-3.041.476 0 .952.055 1.371.167v4.547c-.531-.195-1.427-.278-1.987-.278-1.652 0-2.856 1.171-2.856 2.929v7.979z"/><path fill="#237FE6" d="M45.419.37h16.127c8.907 0 16.127 7.194 16.127 16.07v2.92c0 8.876-7.22 16.07-16.127 16.07H45.42z"/><path fill="#FFFFFD" d="M53.89 13.68h8.47v8.44h-8.47z"/><path fill="#27B7FF" d="M45.419 13.68h8.47v8.44h-8.47z"/><path fill="#27B7FF" d="M62.36 13.68h8.47v8.44h-8.47z"/><path fill="#27B7FF" d="M53.89 5.238h8.47v8.44h-8.47z"/><path fill="#27B7FF" d="M53.89 22.121h8.47v8.44h-8.47z"/></svg>