<svg xmlns="http://www.w3.org/2000/svg" width="141" height="108" fill="none" viewBox="0 0 141 108"><path fill="#62d0f5" d="M87.25 13.75c5.433 4.565 11.346 10.15 13.687 16.988.826 2.444.826 2.444 3.094 3.012l2.469.25c10.821 1.712 19.625 7.688 26.289 16.316 5.892 9.041 8.122 18.73 6.902 29.446C137.572 89.688 132.406 97.355 124 103c-9.317 5.171-19.063 5.825-29.379 3.762-2.641-.768-4.773-1.828-7.184-3.137-2.624-1.257-3.808-1.785-6.656-1.063q-2.444 1.109-4.863 2.266c-12.417 4.987-26.934 3.697-39.168-1.016C20.404 96.355 9.608 84.499 3 68c-3.923-11.103-3.651-25.492.742-36.398C9.533 19.623 17.276 9.797 29.961 4.844 50.29-2.184 69.957.68 87.25 13.75m-52.125 11C31.049 30.983 28.817 38.53 30 46c2.774 11.565 7.47 18.976 17.41 25.523C53.27 74.863 58.265 76.163 65 76l-.14-3.367c-.355-11.976.66-20.797 9.21-29.88C78.448 38.776 83.405 35.924 89 34c-2.754-7.972-9.273-13.249-16.629-17.035-14.118-5.745-26.493-2.5-37.246 7.785m44.5 37.437C77.442 65.966 76.708 69.726 76 74c6.462-1.818 11.552-6.647 15-12.25 1.17-2.732 1.17-2.732 1-5.75-4.646 0-9.076 3.148-12.375 6.187M108 61l-.445 2.64C105.282 75.708 100.884 85.496 93 95c4.052 2.026 8.991 1.647 13.23.281 5.438-2.53 8.475-5.569 11.082-11.031 1.201-5.676.664-10.898-2.062-16.063-2.184-3.093-4.269-4.912-7.25-7.187"/><path fill="#c1d952" d="M124.816 42.156C133.119 49.166 138.994 59.042 140 70c.352 10.514-2.125 19.315-9.047 27.387-7.903 7.58-17.067 10.75-27.953 10.613-7.126-.633-12.793-2.487-19-6 1.06-3.182 2.07-4.426 4.867-6.23 2.915-1.052 5.419-.874 8.508-.77 5.861.174 9.959-.311 14.625-4 4.084-4.504 5.243-9.04 5-15-1.087-5.641-3.878-9.459-7.793-13.555C108 61 108 61 108 59c-8.23-2.985-14.01-3.93-22.25-.312-3.84 2.1-5.767 4.345-7.75 8.312a128 128 0 0 0-.875 4.25L76 75c-3.666 1.955-6.889 2.242-11 2-2.776-5.551-1.64-15.037-.352-21C68.102 46.556 75.133 39.561 84 35c14.076-5.314 29.128-1.671 40.816 7.156"/><path fill="#3491bb" d="M93 55c5.661.497 9.877 1.545 15 4 .811 12.156-3.659 22.43-11 32-2.143 2.344-4.4 4.181-7 6l-2.535 1.809c-12.846 8.69-25.9 10.398-41.11 7.933C35.297 104.296 35.297 104.296 32 101c-.699-8.805 1.303-16.022 6.938-22.937C41.38 75.466 43.658 73.37 47 72c2.744.408 5.365 1.094 8.05 1.79 10.013 2.565 16.342 2.69 25.622-2.278C86.927 67.45 89.973 61.636 93 55"/><path fill="#62c287" d="m133.75 63.875 2.984.055L139 64c1.46 12.762.832 21.487-7 32-6.35 7.14-14.013 10.694-23.438 11.875-9.093.527-16.684-1.416-24.562-5.875 1.06-3.182 2.07-4.426 4.867-6.23 2.915-1.052 5.42-.874 8.508-.77 5.861.174 9.959-.311 14.625-4 4.234-4.669 4.642-8.975 5-15 .278-4.074.753-4.764 3.812-7.687 4.622-3.353 7.175-4.575 12.938-4.438"/><path fill="#1589ba" d="M58.375 74.562C63.08 75.662 67.188 76.336 72 76c-1.579 10.137-9.006 17.957-16 25l-1.898 2.101c-2.048 1.961-3.388 3.048-6.102 3.899-5.862-.823-11.079-2.719-16-6-1.585-6.624.893-13.217 4-19 6.699-9.782 11.4-10.136 22.375-7.438"/><path fill="#d9d82b" d="M93 35c3.945 3.526 7.817 7.743 9 13 .136 2.69.091 5.301 0 8l-3.875-.25c-6.62.01-12.552 2.007-17.563 6.375-1.5 2.76-2.167 5.04-2.937 8.063-.719 2.628-.719 2.628-1.625 4.812-3.656 2.066-6.85 2.244-11 2-2.776-5.551-1.64-15.037-.352-21C68.172 46.363 75.191 39.934 84 35c3.752-1.25 5.222-1.235 9 0"/><path fill="#3f74b9" d="M84.691 11.816C92.267 17.542 98.452 24.131 102 33l-13 1-1.437-2.5c-5.839-8.645-13.895-13.838-23.997-16.027C56.848 14.516 50.595 15.629 44 17c-3.606-4.468-6.58-8.321-8-14 17.375-4.633 33.835-1.21 48.691 8.816"/><path fill="#5b8ac4" d="M93 55c5.661.497 9.877 1.545 15 4 .815 12.22-3.74 22.32-11 32-2.094 2.313-2.094 2.313-4 4h-2c-.23-.713-.462-1.426-.7-2.16C87.553 84.768 84.339 78.868 78 73l1.574-1.031C86.238 67.337 89.467 62.162 93 55"/><path fill="#93cb60" d="M118 78h1c2.39 8.342 3.595 16.335 4 25-10.115 5.37-19.979 6.17-31 3-2.814-1.171-5.34-2.494-8-4 1.06-3.182 2.07-4.426 4.867-6.23 2.915-1.052 5.42-.874 8.508-.77 5.844.173 9.981-.296 14.625-4 3.438-4.072 4.781-7.922 6-13"/><path fill="#92cdec" d="M84 12c8.14 5.326 14.364 11.909 18 21l-13 1-1.5-2.562C84.717 27.213 80.88 24.184 77 21c1.722-3.765 3.992-6.15 7-9"/><path fill="#8cc344" d="m85 58-1.207 1.18c-3.374 3.563-5.142 6.324-6.293 11.132-.664 2.575-.664 2.575-1.5 4.688-3.656 2.066-6.85 2.244-11 2-1.502-3.003-1.093-5.79-1.063-9.125l.028-3.883L64 61c6.743-3.522 13.556-3.12 21-3"/><path fill="#5d7cba" d="M56 2c10.313-.46 20.113 3.427 28 10-2.069 4.029-3.827 6.152-8 8-5.403-1.157-9.957-3.683-13.375-8L61 9l-2.75-2.75L56 4z"/><path fill="#5abe6f" d="m133.75 63.875 2.984.055L139 64c-1.19 6.213-5.525 11.149-10.5 14.875-3.004 1.987-6.009 3.188-9.5 4.125-2.674-8.023-2.674-8.023-1-12 5.109-4.882 8.681-7.293 15.75-7.125"/><path fill="#3375b6" d="M77 74c4.834 1.137 6.907 3.89 9.637 7.777C89.193 85.946 91 89.885 91 94.875 90 97 90 97 87.438 98.313L85 99c-5.43-7.684-8.62-15.496-8-25"/><path fill="#e1dd44" d="m79 38 1 2-.875 2.375C77.516 47.558 77.361 52.587 77 58l-13 3c2.044-10.406 6.757-16.455 15-23"/><path fill="#345979" d="M93 55c5.661.497 9.877 1.545 15 4v8c-2.962-.613-4.381-1.254-7-3a104 104 0 0 0-5.187-1.625c-.902-.26-1.803-.52-2.731-.79L91 61z"/><path fill="#4a74b7" d="M71 5c4.78 1.912 8.798 4.028 13 7-2.072 4.034-3.966 5.929-8 8-2.48-1.113-2.48-1.113-5-3-.488-2.918-.488-2.918-.313-6.187l.137-3.293z"/><path fill="#7bc251" d="M118 78h1c2.294 7.823 3.433 14.845 3 23-7.012-5.488-7.012-5.488-8-9 .411-4.797 2.43-9.469 4-14"/><path fill="#3c6da3" d="M91 59c13.144 1.593 13.144 1.593 17 6v2c-2.962-.613-4.381-1.254-7-3a104 104 0 0 0-5.187-1.625c-.902-.26-1.803-.52-2.731-.79L91 61z"/><path fill="#65944e" d="M65 73h11v2c-3.823 1.423-6.913 2.24-11 2z"/><path fill="#729a4a" d="M93.375 95.25 95 96c-2.476 2.653-4.59 4.68-8 6h-3c1.41-4.23 4.701-7.242 9.375-6.75"/><path fill="#447dbb" d="M97 63c4.128.607 7.332 2.038 11 4l-2 3q-2.254-1.463-4.5-2.937l-2.531-1.653L97 64z"/><path fill="#8ab85b" d="m94 96 2 1c-5.094 5.882-5.094 5.882-8.875 6.375L85 103c2.37-2.62 4.954-4.237 8-6z"/><path fill="#90c95b" d="M64 66q3.03 1.957 6 4v1h-6z"/></svg>