<svg xmlns="http://www.w3.org/2000/svg" width="20" height="20" fill="none" viewBox="0 0 339 300"><path fill="#fff" d="M165.312 299.156c-33.816-.29-71.798-16.098-104.206-43.38-35.663-30.033-56.332-68.639-59.77-111.639-1.434-17.987.205-35.65 4.873-52.502 4.324-15.608 11.097-29.506 20.133-41.31 9.147-11.939 22.07-22.781 37.381-31.35a153 153 0 0 1 16.774-8.086c.133-.067 9.333-4.383 27.618-8.216a119 119 0 0 1 9.859-1.4l.791-.059c2.897-.242 5.79-.368 8.674-.368 18.717 0 35.987 5.351 49.947 15.471 4.566 3.31 8.873 7.24 13.177 12.019l.317.357.475-.09c12.665-2.47 25.141-3.725 37.081-3.725 19.449 0 37.641 3.32 54.069 9.863 16.256 6.47 30.406 18.187 39.83 32.988 17.642 27.705 19.696 67.224 5.49 105.709-9.328 25.289-25.02 47.233-47.961 67.078-14.955 12.935-32.468 22.292-50.644 27.051l-.353.093-.176.322c-10.803 19.81-33.893 31.174-63.351 31.174z"/><path fill="#fff" d="M107.944 1.85v88.147c6.761-11.328 24.49-21.41 48.413-14.981 25.392 6.82 24.295 31.789 24.295 31.789v60.47c0 10.051 3.289 22.476 23.201 22.476 15.357 0 19.489-9.497 20.602-14.888.439-2.136.404-3.629.404-3.629v-49.531c0-3.433.352-7.666 5.378-10.013 2.344-1.095 5.696-1.78 10.517-1.78 16.443 0 16.259 9.685 16.259 9.685v88.791s.03.98-.154 1.653c-.596 2.356-3.182 6.383-13.914 6.383q-1.064.001-2.035-.044c-9.576-.431-12.128-3.904-12.771-6.127-.164-.794-.173-1.865-.173-1.865v-9.867c-2.559 7.491-22.408 22.532-49.141 15.832-15.753-4.048-21.187-15.937-23.193-25.25-1.336-6.194-1.286-11.567-1.286-11.567v-58.307s1.098-20.83-19.364-21.01c-22.53-.2-22.288 20.826-22.288 20.826v43.124s1.188 15.038-15.466 15.159c-7.61.053-11.827-2.387-14.17-5.351-1.187-1.501-1.902-3.146-2.317-4.716-.565-2.237-.565-4.969-.565-4.969V10.104s9.141-4.356 27.768-8.255"/><path fill="url(#huons-logo-grad-1)" d="M191.195 27.769c10.431 11.578 17.84 25.297 23.82 37.906.255.531.494 1.095.742 1.632 5.722 12.43 10.61 27.306 14.48 44.38 2.344-1.093 5.694-1.773 10.519-1.773 16.44 0 16.26 9.68 16.26 9.68v88.789s.031.98-.157 1.655c-.592 2.356-3.187 6.377-13.91 6.377-.714 0-1.393-.008-2.041-.035-.504 8.243-1.457 16.546-2.977 24.774a171 171 0 0 1-3.426 14.85 59.2 59.2 0 0 1-5.065 12.379c18.627-4.876 36.211-14.448 50.98-27.231 21.63-18.705 38.379-40.785 48.202-67.42 12.352-33.47 14.488-74.953-5.57-106.457-9.541-14.969-23.757-26.76-40.232-33.321-18.226-7.26-36.862-9.92-54.383-9.92-13.268 0-25.902 1.525-37.242 3.735"/><path fill="url(#huons-logo-grad-2)" d="M63.314 18.24c-14.628 8.183-27.877 18.826-37.637 31.569-9.455 12.34-16.131 26.632-20.282 41.6C.65 108.559-.915 126.484.5 144.206c3.607 45.1 25.722 83.293 60.067 112.214 28.394 23.903 66.93 43.259 104.748 43.58 26.513.004 51.882-9.164 64.127-31.617-17.973 4.712-36.916 5.061-55.283-.384-30.728-9.102-56.736-29.276-73.799-56.131-1.697-2.677-3.343-5.397-4.86-8.196a156 156 0 0 1-5.425-11.081s-3.728-8.06-7.016-20.619c-1.187-1.501-1.902-3.146-2.314-4.714-.568-2.239-.568-4.971-.568-4.971V10.109a153 153 0 0 0-16.862 8.129"/><path fill="url(#huons-logo-grad-3)" d="M118.699.378q-.398.022-.804.055c-3.335.331-6.656.804-9.952 1.416v62.96c8.51-7.763 19.223-14.822 32.687-20.74 0 0 10.235-5.16 26.584-10.24a230 230 0 0 1 23.981-6.059c-3.978-4.413-8.353-8.541-13.312-12.136C162.859 4.741 145.298.002 127.443.002q-4.369 0-8.744.376"/><path fill="#0068B7" d="M156.357 75.016c25.392 6.82 24.293 31.789 24.293 31.789v60.473c0 10.051 3.289 22.472 23.202 22.472 15.358 0 19.494-9.497 20.603-14.887.419-2.133.407-3.626.407-3.626v-49.533c0-3.43.349-7.663 5.373-10.011-3.867-17.08-8.756-31.955-14.475-44.38-.25-.541-.489-1.107-.741-1.635-5.985-12.609-13.393-26.329-23.824-37.904a227 227 0 0 0-23.981 6.06c-16.349 5.08-26.584 10.235-26.584 10.235-13.464 5.923-24.177 12.981-32.687 20.739v25.189c6.762-11.328 24.491-21.407 48.414-14.981"/><path fill="#0068B7" d="M228.143 210.249c-.165-.792-.173-1.866-.173-1.866v-9.867c-2.56 7.492-22.408 22.536-49.142 15.837-15.753-4.049-21.186-15.941-23.197-25.252-1.337-6.196-1.281-11.566-1.281-11.566v-58.307s1.093-20.83-19.368-21.013c-22.527-.2-22.284 20.829-22.284 20.829v43.12s1.187 15.041-15.467 15.163c-7.613.054-11.83-2.387-14.174-5.355 3.289 12.56 7.02 20.623 7.02 20.623a153 153 0 0 0 5.421 11.077c1.517 2.803 3.163 5.523 4.86 8.2 17.063 26.851 43.071 47.029 73.798 56.126 18.368 5.446 37.316 5.096 55.284.389a59 59 0 0 0 5.064-12.379 170 170 0 0 0 3.427-14.852c1.52-8.231 2.473-16.533 2.979-24.78-9.576-.427-12.124-3.904-12.767-6.127"/><defs><linearGradient id="huons-logo-grad-1" x1="349.698" x2="154.61" y1="146.199" y2="146.199" gradientUnits="userSpaceOnUse"><stop stop-color="#7DCDF4"/><stop offset="1" stop-color="#006FBC"/></linearGradient><linearGradient id="huons-logo-grad-2" x1="-19.609" x2="280.475" y1="155.036" y2="155.036" gradientUnits="userSpaceOnUse"><stop stop-color="#7DCDF4"/><stop offset="1" stop-color="#006FBC"/></linearGradient><linearGradient id="huons-logo-grad-3" x1="-19.424" x2="280.66" y1="32.294" y2="32.294" gradientUnits="userSpaceOnUse"><stop stop-color="#7DCDF4"/><stop offset="1" stop-color="#006FBC"/></linearGradient></defs></svg>